<?xml version="1.0" encoding="UTF-8" standalone="no"?>
<!DOCTYPE svg PUBLIC "-//W3C//DTD SVG 1.1//EN" "http://www.w3.org/Graphics/SVG/1.1/DTD/svg11.dtd">
<svg width="100%" height="100%" viewBox="0 0 512 512" version="1.1" xmlns="http://www.w3.org/2000/svg" xmlns:xlink="http://www.w3.org/1999/xlink" xml:space="preserve" xmlns:serif="http://www.serif.com/" style="fill-rule:evenodd;clip-rule:evenodd;stroke-linecap:round;stroke-linejoin:round;stroke-miterlimit:1.5;">
    <g transform="matrix(0.385718,0,0,0.385718,236.515,18.0134)">
        <g transform="matrix(2.46619,0,0,2.25441,-545.01,507.504)">
            <path d="M167.494,72L167.494,256L265,256" style="fill:none;stroke:rgb(133,162,198);stroke-width:21.95px;"/>
        </g>
        <g transform="matrix(2.46619,0,0,4.32095,-545.01,-436.342)">
            <path d="M167.494,220L167.494,256L265,256" style="fill:none;stroke:rgb(133,162,198);stroke-width:14.74px;"/>
        </g>
        <g transform="matrix(0.842105,0,0,0.842105,46.3403,162.483)">
            <g transform="matrix(0.962086,0,0,0.962086,320.145,575.516)">
                <g transform="matrix(1,0,0,1,-256,-256)">
                    <g>
                        <path d="M272,128L48,128C21.668,128 -0,149.668 0,176L0,112C-0,85.668 21.668,64 48,64L208,64L272,128Z" style="fill:rgb(170,199,236);fill-rule:nonzero;"/>
                        <path d="M512,176L512,400C512,426.332 490.332,448 464,448L48,448C21.668,448 0,426.332 0,400L0,176C-0,149.668 21.668,128 48,128L464,128C490.332,128 512,149.668 512,176Z" style="fill:rgb(133,162,198);fill-rule:nonzero;"/>
                    </g>
                </g>
            </g>
        </g>
        <g transform="matrix(0.842105,0,0,0.842105,46.3403,577.295)">
            <g transform="matrix(0.962086,0,0,0.962086,320.145,575.516)">
                <g transform="matrix(1,0,0,1,-256,-256)">
                    <g>
                        <path d="M272,128L48,128C21.668,128 -0,149.668 0,176L0,112C-0,85.668 21.668,64 48,64L208,64L272,128Z" style="fill:rgb(170,199,236);fill-rule:nonzero;"/>
                        <path d="M512,176L512,400C512,426.332 490.332,448 464,448L48,448C21.668,448 0,426.332 0,400L0,176C-0,149.668 21.668,128 48,128L464,128C490.332,128 512,149.668 512,176Z" style="fill:rgb(133,162,198);fill-rule:nonzero;"/>
                    </g>
                </g>
            </g>
        </g>
        <g transform="matrix(6.32,0,0,6.32,-438.453,-51.5164)">
            <g>
                <path d="M92.71,44.408L52.591,4.291C50.281,1.98 46.534,1.98 44.222,4.291L35.892,12.623L46.459,23.19C48.915,22.36 51.731,22.917 53.688,24.875C55.657,26.845 56.209,29.685 55.358,32.15L65.544,42.335C68.009,41.485 70.851,42.035 72.819,44.006C75.569,46.756 75.569,51.212 72.819,53.964C70.067,56.715 65.611,56.715 62.858,53.964C60.79,51.894 60.278,48.854 61.327,46.306L51.827,36.807L51.827,61.804C52.497,62.136 53.13,62.578 53.688,63.136C56.438,65.886 56.438,70.342 53.688,73.095C50.938,75.844 46.479,75.844 43.731,73.095C40.981,70.341 40.981,65.885 43.731,63.136C44.411,62.457 45.198,61.943 46.038,61.599L46.038,36.369C45.198,36.025 44.413,35.516 43.731,34.832C41.648,32.75 41.147,29.692 42.215,27.134L31.798,16.715L4.288,44.222C1.977,46.535 1.977,50.282 4.288,52.593L44.409,92.711C46.719,95.022 50.465,95.022 52.778,92.711L92.71,52.779C95.021,50.468 95.021,46.719 92.71,44.408Z" style="fill:rgb(240,81,51);fill-rule:nonzero;"/>
            </g>
        </g>
    </g>
</svg>
